<mxfile host="app.diagrams.net" modified="2023-11-19T02:10:28.334Z" agent="Mozilla/5.0 (Windows NT 10.0; Win64; x64) AppleWebKit/537.36 (KHTML, like Gecko) Chrome/119.0.0.0 Safari/537.36" etag="6dpfKl4Jyy-N_-hKodja" version="22.1.3" type="github">
  <diagram name="Page-1" id="pFX7y05Hc7Nv_Xd7KWQk">
    <mxGraphModel dx="791" dy="856" grid="1" gridSize="10" guides="1" tooltips="1" connect="1" arrows="1" fold="1" page="1" pageScale="1" pageWidth="850" pageHeight="1100" math="0" shadow="0">
      <root>
        <mxCell id="0" />
        <mxCell id="1" parent="0" />
        <mxCell id="ym9Bn9zGvR6PUeb4yeDG-1" value="Student" style="shape=umlActor;verticalLabelPosition=bottom;verticalAlign=top;html=1;" vertex="1" parent="1">
          <mxGeometry x="45" y="40" width="30" height="60" as="geometry" />
        </mxCell>
        <mxCell id="ym9Bn9zGvR6PUeb4yeDG-2" value="" style="group" vertex="1" connectable="0" parent="1">
          <mxGeometry x="266" y="40" width="70" height="90" as="geometry" />
        </mxCell>
        <mxCell id="ym9Bn9zGvR6PUeb4yeDG-3" value="" style="shape=umlBoundary;whiteSpace=wrap;html=1;" vertex="1" parent="ym9Bn9zGvR6PUeb4yeDG-2">
          <mxGeometry width="70" height="60" as="geometry" />
        </mxCell>
        <mxCell id="ym9Bn9zGvR6PUeb4yeDG-4" value="YouthVenture" style="text;html=1;strokeColor=none;fillColor=none;align=center;verticalAlign=middle;whiteSpace=wrap;rounded=0;" vertex="1" parent="ym9Bn9zGvR6PUeb4yeDG-2">
          <mxGeometry x="5" y="60" width="60" height="30" as="geometry" />
        </mxCell>
        <mxCell id="ym9Bn9zGvR6PUeb4yeDG-5" value="" style="ellipse;shape=umlEntity;whiteSpace=wrap;html=1;" vertex="1" parent="1">
          <mxGeometry x="429" y="40" width="60" height="60" as="geometry" />
        </mxCell>
        <mxCell id="ym9Bn9zGvR6PUeb4yeDG-6" value="Database" style="text;html=1;strokeColor=none;fillColor=none;align=center;verticalAlign=middle;whiteSpace=wrap;rounded=0;" vertex="1" parent="1">
          <mxGeometry x="429" y="100" width="60" height="30" as="geometry" />
        </mxCell>
        <mxCell id="ym9Bn9zGvR6PUeb4yeDG-7" value="" style="endArrow=none;dashed=1;html=1;rounded=0;strokeWidth=1;dashPattern=8 8;" edge="1" parent="1" source="ym9Bn9zGvR6PUeb4yeDG-11">
          <mxGeometry width="50" height="50" relative="1" as="geometry">
            <mxPoint x="59.5" y="630" as="sourcePoint" />
            <mxPoint x="60" y="130" as="targetPoint" />
          </mxGeometry>
        </mxCell>
        <mxCell id="ym9Bn9zGvR6PUeb4yeDG-8" value="" style="endArrow=none;dashed=1;html=1;rounded=0;strokeWidth=1;dashPattern=8 8;" edge="1" parent="1" source="ym9Bn9zGvR6PUeb4yeDG-13">
          <mxGeometry width="50" height="50" relative="1" as="geometry">
            <mxPoint x="300.74" y="630" as="sourcePoint" />
            <mxPoint x="300" y="130" as="targetPoint" />
          </mxGeometry>
        </mxCell>
        <mxCell id="ym9Bn9zGvR6PUeb4yeDG-9" value="" style="endArrow=none;dashed=1;html=1;rounded=0;strokeWidth=1;dashPattern=8 8;entryX=0.516;entryY=1.043;entryDx=0;entryDy=0;entryPerimeter=0;" edge="1" parent="1" source="ym9Bn9zGvR6PUeb4yeDG-23" target="ym9Bn9zGvR6PUeb4yeDG-6">
          <mxGeometry width="50" height="50" relative="1" as="geometry">
            <mxPoint x="458.74" y="630" as="sourcePoint" />
            <mxPoint x="458.74" y="130" as="targetPoint" />
          </mxGeometry>
        </mxCell>
        <mxCell id="ym9Bn9zGvR6PUeb4yeDG-10" value="" style="endArrow=none;dashed=1;html=1;rounded=0;strokeWidth=1;dashPattern=8 8;" edge="1" parent="1" target="ym9Bn9zGvR6PUeb4yeDG-11">
          <mxGeometry width="50" height="50" relative="1" as="geometry">
            <mxPoint x="60" y="840" as="sourcePoint" />
            <mxPoint x="59.5" y="130" as="targetPoint" />
          </mxGeometry>
        </mxCell>
        <mxCell id="ym9Bn9zGvR6PUeb4yeDG-11" value="" style="rounded=0;whiteSpace=wrap;html=1;" vertex="1" parent="1">
          <mxGeometry x="55" y="160" width="10" height="640" as="geometry" />
        </mxCell>
        <mxCell id="ym9Bn9zGvR6PUeb4yeDG-12" value="" style="endArrow=none;dashed=1;html=1;rounded=0;strokeWidth=1;dashPattern=8 8;" edge="1" parent="1" target="ym9Bn9zGvR6PUeb4yeDG-13">
          <mxGeometry width="50" height="50" relative="1" as="geometry">
            <mxPoint x="300" y="840" as="sourcePoint" />
            <mxPoint x="300.74" y="130" as="targetPoint" />
          </mxGeometry>
        </mxCell>
        <mxCell id="ym9Bn9zGvR6PUeb4yeDG-13" value="" style="rounded=0;whiteSpace=wrap;html=1;" vertex="1" parent="1">
          <mxGeometry x="295" y="160" width="10" height="640" as="geometry" />
        </mxCell>
        <mxCell id="ym9Bn9zGvR6PUeb4yeDG-14" value="" style="endArrow=classic;html=1;rounded=0;exitX=1;exitY=0;exitDx=0;exitDy=0;entryX=0;entryY=0;entryDx=0;entryDy=0;" edge="1" parent="1" source="ym9Bn9zGvR6PUeb4yeDG-11" target="ym9Bn9zGvR6PUeb4yeDG-13">
          <mxGeometry width="50" height="50" relative="1" as="geometry">
            <mxPoint x="250" y="350" as="sourcePoint" />
            <mxPoint x="300" y="300" as="targetPoint" />
          </mxGeometry>
        </mxCell>
        <mxCell id="ym9Bn9zGvR6PUeb4yeDG-15" value="Login()" style="text;html=1;strokeColor=none;fillColor=none;align=center;verticalAlign=middle;whiteSpace=wrap;rounded=0;" vertex="1" parent="1">
          <mxGeometry x="150" y="136" width="60" height="30" as="geometry" />
        </mxCell>
        <mxCell id="ym9Bn9zGvR6PUeb4yeDG-16" value="Authentication()" style="html=1;verticalAlign=bottom;endArrow=open;dashed=1;endSize=8;curved=0;rounded=0;entryX=1.019;entryY=0.055;entryDx=0;entryDy=0;entryPerimeter=0;movable=1;resizable=1;rotatable=1;deletable=1;editable=1;locked=0;connectable=1;exitX=-0.081;exitY=0.055;exitDx=0;exitDy=0;exitPerimeter=0;" edge="1" parent="1" source="ym9Bn9zGvR6PUeb4yeDG-13" target="ym9Bn9zGvR6PUeb4yeDG-11">
          <mxGeometry x="-0.0019" relative="1" as="geometry">
            <mxPoint x="81.07999999999998" y="200.03999999999996" as="targetPoint" />
            <mxPoint x="251" y="200" as="sourcePoint" />
            <mxPoint as="offset" />
          </mxGeometry>
        </mxCell>
        <mxCell id="ym9Bn9zGvR6PUeb4yeDG-20" value="" style="endArrow=classic;html=1;rounded=0;exitX=0.997;exitY=0.219;exitDx=0;exitDy=0;entryX=-0.029;entryY=0.219;entryDx=0;entryDy=0;exitPerimeter=0;entryPerimeter=0;movable=1;resizable=1;rotatable=1;deletable=1;editable=1;locked=0;connectable=1;" edge="1" parent="1">
          <mxGeometry width="50" height="50" relative="1" as="geometry">
            <mxPoint x="64.97000000000003" y="238.8699999999999" as="sourcePoint" />
            <mxPoint x="294.71000000000004" y="238.8699999999999" as="targetPoint" />
          </mxGeometry>
        </mxCell>
        <mxCell id="ym9Bn9zGvR6PUeb4yeDG-21" value="Click profile icon()" style="text;html=1;strokeColor=none;fillColor=none;align=center;verticalAlign=middle;whiteSpace=wrap;rounded=0;movable=1;resizable=1;rotatable=1;deletable=1;editable=1;locked=0;connectable=1;" vertex="1" parent="1">
          <mxGeometry x="110" y="215" width="140" height="30" as="geometry" />
        </mxCell>
        <mxCell id="ym9Bn9zGvR6PUeb4yeDG-22" value="" style="endArrow=none;dashed=1;html=1;rounded=0;strokeWidth=1;dashPattern=8 8;" edge="1" parent="1" target="ym9Bn9zGvR6PUeb4yeDG-23">
          <mxGeometry width="50" height="50" relative="1" as="geometry">
            <mxPoint x="459.2222222222223" y="700" as="sourcePoint" />
            <mxPoint x="458.74" y="130" as="targetPoint" />
          </mxGeometry>
        </mxCell>
        <mxCell id="ym9Bn9zGvR6PUeb4yeDG-23" value="" style="rounded=0;whiteSpace=wrap;html=1;" vertex="1" parent="1">
          <mxGeometry x="455" y="280" width="10" height="440" as="geometry" />
        </mxCell>
        <mxCell id="ym9Bn9zGvR6PUeb4yeDG-24" value="" style="endArrow=classic;html=1;rounded=0;entryX=0;entryY=0;entryDx=0;entryDy=0;exitX=1.124;exitY=0.163;exitDx=0;exitDy=0;exitPerimeter=0;" edge="1" parent="1">
          <mxGeometry width="50" height="50" relative="1" as="geometry">
            <mxPoint x="306.23999999999995" y="279.99" as="sourcePoint" />
            <mxPoint x="455" y="280.99999999999994" as="targetPoint" />
          </mxGeometry>
        </mxCell>
        <mxCell id="ym9Bn9zGvR6PUeb4yeDG-25" value="Retrieve profile()" style="text;html=1;strokeColor=none;fillColor=none;align=center;verticalAlign=middle;whiteSpace=wrap;rounded=0;" vertex="1" parent="1">
          <mxGeometry x="310" y="257" width="140" height="30" as="geometry" />
        </mxCell>
        <mxCell id="ym9Bn9zGvR6PUeb4yeDG-26" value="Student profile()" style="html=1;verticalAlign=bottom;endArrow=open;dashed=1;endSize=8;curved=0;rounded=0;exitX=-0.133;exitY=0.09;exitDx=0;exitDy=0;exitPerimeter=0;entryX=1;entryY=0.25;entryDx=0;entryDy=0;" edge="1" parent="1" source="ym9Bn9zGvR6PUeb4yeDG-23" target="ym9Bn9zGvR6PUeb4yeDG-13">
          <mxGeometry relative="1" as="geometry">
            <mxPoint x="267.09000000000003" y="399.36" as="targetPoint" />
            <mxPoint x="429.36" y="400.32000000000005" as="sourcePoint" />
          </mxGeometry>
        </mxCell>
        <mxCell id="ym9Bn9zGvR6PUeb4yeDG-27" value="Display student profile()" style="html=1;verticalAlign=bottom;endArrow=open;dashed=1;endSize=8;curved=0;rounded=0;exitX=-0.012;exitY=0.383;exitDx=0;exitDy=0;exitPerimeter=0;entryX=1.085;entryY=0.383;entryDx=0;entryDy=0;entryPerimeter=0;movable=1;resizable=1;rotatable=1;deletable=1;editable=1;locked=0;connectable=1;" edge="1" parent="1">
          <mxGeometry relative="1" as="geometry">
            <mxPoint x="65.97000000000003" y="359.9999999999999" as="targetPoint" />
            <mxPoint x="295" y="359.9999999999999" as="sourcePoint" />
          </mxGeometry>
        </mxCell>
        <mxCell id="ym9Bn9zGvR6PUeb4yeDG-28" value="" style="endArrow=classic;html=1;rounded=0;exitX=1.01;exitY=0.438;exitDx=0;exitDy=0;exitPerimeter=0;entryX=-0.045;entryY=0.438;entryDx=0;entryDy=0;entryPerimeter=0;movable=1;resizable=1;rotatable=1;deletable=1;editable=1;locked=0;connectable=1;" edge="1" parent="1">
          <mxGeometry width="50" height="50" relative="1" as="geometry">
            <mxPoint x="65.10000000000002" y="399.7400000000001" as="sourcePoint" />
            <mxPoint x="294.55000000000007" y="399.7400000000001" as="targetPoint" />
          </mxGeometry>
        </mxCell>
        <mxCell id="ym9Bn9zGvR6PUeb4yeDG-29" value="Click view all rewards()" style="text;html=1;strokeColor=none;fillColor=none;align=center;verticalAlign=middle;whiteSpace=wrap;rounded=0;movable=1;resizable=1;rotatable=1;deletable=1;editable=1;locked=0;connectable=1;" vertex="1" parent="1">
          <mxGeometry x="110" y="377" width="140" height="30" as="geometry" />
        </mxCell>
        <mxCell id="ym9Bn9zGvR6PUeb4yeDG-30" value="" style="endArrow=classic;html=1;rounded=0;entryX=-0.106;entryY=0.363;entryDx=0;entryDy=0;entryPerimeter=0;exitX=1.09;exitY=0.438;exitDx=0;exitDy=0;exitPerimeter=0;" edge="1" parent="1" source="ym9Bn9zGvR6PUeb4yeDG-13" target="ym9Bn9zGvR6PUeb4yeDG-23">
          <mxGeometry width="50" height="50" relative="1" as="geometry">
            <mxPoint x="310" y="520" as="sourcePoint" />
            <mxPoint x="430.04999999999995" y="519.84" as="targetPoint" />
          </mxGeometry>
        </mxCell>
        <mxCell id="ym9Bn9zGvR6PUeb4yeDG-31" value="Retrieve all rewards()" style="text;html=1;strokeColor=none;fillColor=none;align=center;verticalAlign=middle;whiteSpace=wrap;rounded=0;" vertex="1" parent="1">
          <mxGeometry x="310" y="417" width="140" height="30" as="geometry" />
        </mxCell>
        <mxCell id="ym9Bn9zGvR6PUeb4yeDG-32" value="Reward can be claimed()" style="html=1;verticalAlign=bottom;endArrow=open;dashed=1;endSize=8;curved=0;rounded=0;exitX=0;exitY=1;exitDx=0;exitDy=0;entryX=1.028;entryY=0.548;entryDx=0;entryDy=0;entryPerimeter=0;" edge="1" parent="1">
          <mxGeometry relative="1" as="geometry">
            <mxPoint x="304.2800000000001" y="480.03999999999996" as="targetPoint" />
            <mxPoint x="454" y="480" as="sourcePoint" />
          </mxGeometry>
        </mxCell>
        <mxCell id="ym9Bn9zGvR6PUeb4yeDG-33" value="Display rewards can be claimed()" style="html=1;verticalAlign=bottom;endArrow=open;dashed=1;endSize=8;curved=0;rounded=0;entryX=1.124;entryY=0.603;entryDx=0;entryDy=0;entryPerimeter=0;movable=1;resizable=1;rotatable=1;deletable=1;editable=1;locked=0;connectable=1;exitX=-0.018;exitY=0.603;exitDx=0;exitDy=0;exitPerimeter=0;" edge="1" parent="1">
          <mxGeometry relative="1" as="geometry">
            <mxPoint x="66.42000000000002" y="520" as="targetPoint" />
            <mxPoint x="294.99999999999994" y="520" as="sourcePoint" />
          </mxGeometry>
        </mxCell>
        <mxCell id="ym9Bn9zGvR6PUeb4yeDG-35" value="" style="endArrow=classic;html=1;rounded=0;exitX=1.02;exitY=0.712;exitDx=0;exitDy=0;exitPerimeter=0;entryX=-0.04;entryY=0.712;entryDx=0;entryDy=0;entryPerimeter=0;movable=1;resizable=1;rotatable=1;deletable=1;editable=1;locked=0;connectable=1;" edge="1" parent="1">
          <mxGeometry width="50" height="50" relative="1" as="geometry">
            <mxPoint x="65.6" y="560" as="sourcePoint" />
            <mxPoint x="295" y="560" as="targetPoint" />
          </mxGeometry>
        </mxCell>
        <mxCell id="ym9Bn9zGvR6PUeb4yeDG-36" value="Click redeem now()" style="text;html=1;strokeColor=none;fillColor=none;align=center;verticalAlign=middle;whiteSpace=wrap;rounded=0;movable=1;resizable=1;rotatable=1;deletable=1;editable=1;locked=0;connectable=1;" vertex="1" parent="1">
          <mxGeometry x="109.99999999999999" y="535" width="140" height="30" as="geometry" />
        </mxCell>
        <mxCell id="ym9Bn9zGvR6PUeb4yeDG-37" value="" style="endArrow=classic;html=1;rounded=0;entryX=0;entryY=0;entryDx=0;entryDy=0;movable=1;resizable=1;rotatable=1;deletable=1;editable=1;locked=0;connectable=1;exitX=1;exitY=0.739;exitDx=0;exitDy=0;exitPerimeter=0;" edge="1" parent="1">
          <mxGeometry width="50" height="50" relative="1" as="geometry">
            <mxPoint x="305.5" y="680" as="sourcePoint" />
            <mxPoint x="454.5" y="680.5300000000002" as="targetPoint" />
          </mxGeometry>
        </mxCell>
        <mxCell id="ym9Bn9zGvR6PUeb4yeDG-38" value="Include badges to profile()" style="text;html=1;strokeColor=none;fillColor=none;align=center;verticalAlign=middle;whiteSpace=wrap;rounded=0;movable=1;resizable=1;rotatable=1;deletable=1;editable=1;locked=0;connectable=1;" vertex="1" parent="1">
          <mxGeometry x="300" y="657" width="160" height="30" as="geometry" />
        </mxCell>
        <mxCell id="ym9Bn9zGvR6PUeb4yeDG-40" value="Display reward page()" style="html=1;verticalAlign=bottom;endArrow=open;dashed=1;endSize=8;curved=0;rounded=0;exitX=-0.2;exitY=0.822;exitDx=0;exitDy=0;exitPerimeter=0;entryX=1.118;entryY=0.822;entryDx=0;entryDy=0;entryPerimeter=0;" edge="1" parent="1">
          <mxGeometry relative="1" as="geometry">
            <mxPoint x="64.99999999999994" y="600" as="targetPoint" />
            <mxPoint x="291.82" y="600" as="sourcePoint" />
          </mxGeometry>
        </mxCell>
        <mxCell id="ym9Bn9zGvR6PUeb4yeDG-41" value="" style="endArrow=classic;html=1;rounded=0;exitX=1.015;exitY=0.877;exitDx=0;exitDy=0;exitPerimeter=0;entryX=-0.112;entryY=0.877;entryDx=0;entryDy=0;entryPerimeter=0;movable=1;resizable=1;rotatable=1;deletable=1;editable=1;locked=0;connectable=1;" edge="1" parent="1">
          <mxGeometry width="50" height="50" relative="1" as="geometry">
            <mxPoint x="65.00000000000003" y="640" as="sourcePoint" />
            <mxPoint x="293.7299999999999" y="640" as="targetPoint" />
          </mxGeometry>
        </mxCell>
        <mxCell id="ym9Bn9zGvR6PUeb4yeDG-42" value="Click claim now()" style="text;html=1;strokeColor=none;fillColor=none;align=center;verticalAlign=middle;whiteSpace=wrap;rounded=0;movable=1;resizable=1;rotatable=1;deletable=1;editable=1;locked=0;connectable=1;" vertex="1" parent="1">
          <mxGeometry x="110" y="615" width="140" height="30" as="geometry" />
        </mxCell>
        <mxCell id="ym9Bn9zGvR6PUeb4yeDG-46" value="Display list of rewards()" style="html=1;verticalAlign=bottom;endArrow=open;dashed=1;endSize=8;curved=0;rounded=0;exitX=0;exitY=1;exitDx=0;exitDy=0;entryX=1;entryY=1;entryDx=0;entryDy=0;" edge="1" parent="1">
          <mxGeometry relative="1" as="geometry">
            <mxPoint x="65" y="760.0000000000002" as="targetPoint" />
            <mxPoint x="295" y="759.999999999995" as="sourcePoint" />
          </mxGeometry>
        </mxCell>
        <mxCell id="ym9Bn9zGvR6PUeb4yeDG-47" value="" style="endArrow=none;dashed=1;html=1;rounded=0;strokeWidth=1;dashPattern=8 8;entryX=0.5;entryY=1;entryDx=0;entryDy=0;" edge="1" parent="1" target="ym9Bn9zGvR6PUeb4yeDG-23">
          <mxGeometry width="50" height="50" relative="1" as="geometry">
            <mxPoint x="460" y="840" as="sourcePoint" />
            <mxPoint x="459.57142857142856" y="860" as="targetPoint" />
          </mxGeometry>
        </mxCell>
        <mxCell id="ym9Bn9zGvR6PUeb4yeDG-51" value="Student" style="shape=umlActor;verticalLabelPosition=bottom;verticalAlign=top;html=1;" vertex="1" parent="1">
          <mxGeometry x="45" y="845" width="30" height="60" as="geometry" />
        </mxCell>
        <mxCell id="ym9Bn9zGvR6PUeb4yeDG-52" value="" style="group" vertex="1" connectable="0" parent="1">
          <mxGeometry x="266" y="845" width="70" height="90" as="geometry" />
        </mxCell>
        <mxCell id="ym9Bn9zGvR6PUeb4yeDG-53" value="" style="shape=umlBoundary;whiteSpace=wrap;html=1;" vertex="1" parent="ym9Bn9zGvR6PUeb4yeDG-52">
          <mxGeometry width="70" height="60" as="geometry" />
        </mxCell>
        <mxCell id="ym9Bn9zGvR6PUeb4yeDG-54" value="YouthVenture" style="text;html=1;strokeColor=none;fillColor=none;align=center;verticalAlign=middle;whiteSpace=wrap;rounded=0;" vertex="1" parent="ym9Bn9zGvR6PUeb4yeDG-52">
          <mxGeometry x="5" y="60" width="60" height="30" as="geometry" />
        </mxCell>
        <mxCell id="ym9Bn9zGvR6PUeb4yeDG-55" value="" style="ellipse;shape=umlEntity;whiteSpace=wrap;html=1;" vertex="1" parent="1">
          <mxGeometry x="429" y="845" width="60" height="60" as="geometry" />
        </mxCell>
        <mxCell id="ym9Bn9zGvR6PUeb4yeDG-56" value="Database" style="text;html=1;strokeColor=none;fillColor=none;align=center;verticalAlign=middle;whiteSpace=wrap;rounded=0;" vertex="1" parent="1">
          <mxGeometry x="429" y="905" width="60" height="30" as="geometry" />
        </mxCell>
        <mxCell id="ym9Bn9zGvR6PUeb4yeDG-58" value="" style="endArrow=classic;html=1;rounded=0;exitX=1.015;exitY=0.877;exitDx=0;exitDy=0;exitPerimeter=0;entryX=-0.112;entryY=0.877;entryDx=0;entryDy=0;entryPerimeter=0;movable=1;resizable=1;rotatable=1;deletable=1;editable=1;locked=0;connectable=1;" edge="1" parent="1">
          <mxGeometry width="50" height="50" relative="1" as="geometry">
            <mxPoint x="65.00000000000003" y="720" as="sourcePoint" />
            <mxPoint x="293.7299999999999" y="720" as="targetPoint" />
          </mxGeometry>
        </mxCell>
        <mxCell id="ym9Bn9zGvR6PUeb4yeDG-59" value="Click cancel redeem()" style="text;html=1;strokeColor=none;fillColor=none;align=center;verticalAlign=middle;whiteSpace=wrap;rounded=0;movable=1;resizable=1;rotatable=1;deletable=1;editable=1;locked=0;connectable=1;" vertex="1" parent="1">
          <mxGeometry x="110" y="697" width="140" height="30" as="geometry" />
        </mxCell>
        <mxCell id="ym9Bn9zGvR6PUeb4yeDG-60" value="AF1" style="shape=umlFrame;whiteSpace=wrap;html=1;pointerEvents=0;width=40;height=20;" vertex="1" parent="1">
          <mxGeometry x="40" y="690" width="290" height="90" as="geometry" />
        </mxCell>
      </root>
    </mxGraphModel>
  </diagram>
</mxfile>
